<svg xmlns="http://www.w3.org/2000/svg" xml:space="preserve" viewBox="0 0 512 512">
  <path fill="#00AB8E" d="M424 309.2c-102.5 104.7-264.8 100.9-368-3l-1.5-1.5a31 31 0 0 0-44.8 0 32.4 32.4 0 0 0-1.3 44.8l.6.7a290.7 290.7 0 0 0 415.4-.4A301 301 0 0 0 503 73.3 271.8 271.8 0 0 1 429 304l-5 5.2z"/>
  <linearGradient id="a" x1="-59.3" x2="22.9" y1="43.6" y2="43.6" gradientTransform="matrix(1 0 0 -1 59.3 495.4)" gradientUnits="userSpaceOnUse">
    <stop offset="0" stop-color="#f56565"/>
    <stop offset="1" stop-color="#ed64a6"/>
  </linearGradient>
  <path fill="url(#a)" d="M0 512h28.3l53.9-107.7c-7.5-3.8-14.7-8-21.9-12.6L0 512z"/>
  <linearGradient id="b" x1="29.8" x2="452.7" y1="239.4" y2="239.4" gradientTransform="matrix(1 0 0 -1 59.3 495.4)" gradientUnits="userSpaceOnUse">
    <stop offset="0" stop-color="#f56565"/>
    <stop offset="1" stop-color="#ed64a6"/>
  </linearGradient>
  <path fill="url(#b)" d="M486.5 512H512L256.7 0 89 334.4c7 5 14 9.6 21.2 13.8L256 56.7 486.5 512z"/>
  <linearGradient id="c" x1="197.4" x2="197.4" y1="495.4" y2="495.4" gradientTransform="matrix(1 0 0 -1 59.3 495.4)" gradientUnits="userSpaceOnUse">
    <stop offset="0" stop-color="#f56565"/>
    <stop offset="1" stop-color="#ed64a6"/>
  </linearGradient>
</svg>