<svg xmlns="http://www.w3.org/2000/svg" xml:space="preserve" viewBox=".5 560.5 1920 600">
  <path fill="#00AB8E" d="M15 1159.9v-78.4h4.7v73.8h43.7v4.6H15.1zm119.7-41.5h43.8v5.4H134v-5.4h.7zm0-36.9h47.6v4.7h-47.6v-4.7zm0 73.8h47.6v4.6h-47.6v-4.6zm194.1-73.8h4.6l-38.3 78.4-38.4-78.4h4.6l34.5 69.2 33-69.2zm78.3 37h43.7v5.3H407v-5.4zm0-37h49v4.7h-49v-4.7zm0 73.8h49v4.6h-49v-4.6zm118.9 4.6v-78.4h4.6v73.8H575v4.6h-49zm208.6 0c-4.8 0-9.5-1-13.8-3-4.6-1.6-7.7-4-9.2-7a17 17 0 0 1-3.9-8.4l-1.5-9.3v-50.7h3.9v50.7c0 3.9.7 7 2.2 10 2.4 6.2 7 10 12.3 12.3l10.8.8 10-.8 7.6-5.4c1.5-.7 3.8-3.8 4.6-6.9 1.5-3 2.3-6.1 2.3-10.7v-50h3.8v50.7l-.7 9.3c-.8 3-2.3 6.1-4.6 8.4l-8.5 7.7a46 46 0 0 1-15.3 2.3zm155.7-78.4c3.9 0 7.7.8 10 3.1 4.6 2.3 7.7 6.2 7.7 10.8l2.3 7.7c0 3 0 4.6-1.6 6.1 0 3-.7 3.8-2.3 5.4 0 2.3-1.5 3-2.3 3.8l-3.8 3a23 23 0 0 1-10 2.4H852v36h-4.6v-41.4h42.1c3.9 0 7.7-.7 10.8-3l3-3.1.8-3.9.8-5.3v-5.4l-1.5-3.9-3.1-3.8c-3-2.3-7.7-3.8-10.8-3.8h-42.1v-4.7h43zm193.3 0 38.4 78.4h-3.9l-34.5-69.1-35.3 69h-3.8l38.4-78.3h.7zm165.7 12.3a35.3 35.3 0 0 0-46.8 3.1 30.7 30.7 0 0 0-10.7 28.4h-4.6v-4.6c0-5.4.7-10 3-15.3 4.3-9 11.7-16.1 20.7-20a36.8 36.8 0 0 1 40.7 5.4l-2.3 3zm4.6 27.7v34.6l-3.8 3.8v-34.6h-18.4v-3.8h23-.8zm69.8-40h4.6v78.4h-4.6v-78.4zm66 78.4v-78.4h5.3v73.8h43.8v4.6h-49.1zm110.5-78.4h4.5v78.4h-3.8v-78.4h-.7zm80.5 78.4v-78.4h34.5v4.7h-30v73.7h-4.5zm134.2 0V1123l-30.7-41.5h4.6l28.4 37 28.4-37h5.4l-31.5 41.5v36.9h-4.6z"/>
  <linearGradient id="a" x1=".5" x2="1920.5" y1="770.9" y2="770.9" gradientUnits="userSpaceOnUse">
    <stop offset="0" stop-color="#f56565"/>
    <stop offset="1" stop-color="#ed64a6"/>
  </linearGradient>
  <path fill="url(#a)" d="m208.4 560.5 207.9 420.9h-20.7L208.4 608 23.5 981.4H.5l208.6-420.1-.7-.8zm625.1 61.4A181.6 181.6 0 0 0 714 584.3a188 188 0 0 0-188 213.5h-23c-5.3-36.6 0-74 15.4-107.5a213.2 213.2 0 0 1 197.1-129 207 207 0 0 1 135 47.6l-16.9 13.8v-.8zm27.7 153.6V963l-23.8 18.5V798.6h-95.1v-23h118.9zm155.7-215h23v420.9h-23V560.5zm227.8 420.9V560.5h185.6v23h-161.8v397h-23l-.8.9zm483.3 0V783.2l-169.6-222.7h27.7l153.4 201.2 153.4-200.4h27.6l-168.8 221.1v198.2h-23l-.7.8z"/>
</svg>